<svg xmlns="http://www.w3.org/2000/svg" xmlns:xlink="http://www.w3.org/1999/xlink" xml:space="preserve" version="1.1" viewBox="0 0 256 256" enable-background="new 0 0 256 256" style="fill-rule:evenodd;clip-rule:evenodd;stroke-linecap:round;stroke-linejoin:round;stroke-miterlimit:1.41421;">
	<g id="sftth-doll-icon">
		<rect id="sftth-background" x="0" y="0" width="256" height="256" fill="#EDE2E0"/>
		<path id="sftth-doll" d="M198.095,164.318L198.032,168C196.448,201.404 189.233,218.866 177.917,227.994L177.997,227.994C180.76,227.994 183,230.234 183,232.997C183,235.76 180.76,238 177.997,238L78.0031,238C75.24,238 73,235.76 73,232.997C73,230.254 75.208,228.026 77.9439,227.994C66.6728,218.866 59.5097,201.404 58.0483,168C57.1381,147.194 66.304,128.492 80.9978,115.665L80.9978,88.0104L81,88.0104L81,88C81,67.0132 102.043,50 128,50C153.957,50 175,67.0132 175,88L175,88.0104L175.002,88.0104L175.002,115.555L177.245,117.606L177.069,117.861C171.216,128.468 170.888,138.352 169.782,143.485C172.12,138.136 179.734,135.013 185.48,126.932C187.27,129.365 188.896,131.917 190.332,134.583C181.779,139.232 176.569,145.281 173.087,148.182C178.077,145.49 185.696,147.52 194.876,145.045C195.63,147.309 196.259,149.622 196.741,151.974C186.478,150.546 178.254,152.696 173.537,153.104C180.063,153.848 185.861,161.804 197.72,164.278L198.095,164.318Z" fill="#6D032B"/>
		<path id="sftth-flower" d="M164.809,160.146C165.413,166.685 158.809,173.987 158.809,186.101C158.809,189.414 161.495,192.101 164.809,192.101C168.122,192.101 170.809,189.414 170.809,186.101C170.809,173.987 166.32,165.174 164.809,160.146ZM154.932,164.773C150.666,169.767 140.827,170.123 132.143,178.57C129.768,180.88 129.716,184.679 132.026,187.054C134.337,189.43 138.135,189.482 140.511,187.172C149.194,178.725 152.382,169.363 154.932,164.773ZM170.247,158.309C174.697,163.138 173.881,172.95 181.235,182.576C183.246,185.21 187.012,185.714 189.645,183.702C192.278,181.691 192.782,177.925 190.771,175.292C183.417,165.665 174.501,161.386 170.247,158.309ZM198.095,164.318L197.72,164.278C185.861,161.804 180.063,153.848 173.537,153.104C178.254,152.696 186.478,150.546 196.741,151.974C197.593,155.955 198.057,160.081 198.095,164.318ZM164.809,145.521C168.134,145.521 170.829,148.216 170.829,151.541C170.829,154.866 168.134,157.562 164.809,157.562C161.484,157.562 158.788,154.866 158.788,151.541C158.788,148.216 161.484,145.521 164.809,145.521ZM155.781,152.78C149.474,154.61 141.055,149.505 129.16,151.795C125.906,152.422 123.776,155.567 124.402,158.821C125.029,162.075 128.174,164.205 131.428,163.579C143.324,161.288 151.129,155.215 155.781,152.78ZM194.876,145.045C185.696,147.52 178.077,145.49 173.087,148.182C176.569,145.281 181.779,139.232 190.332,134.583C192.15,137.917 193.68,141.418 194.876,145.045ZM157.403,148.134C151.049,146.475 146.434,137.779 135.044,133.652C131.929,132.524 128.488,134.134 127.359,137.25C126.231,140.365 127.841,143.806 130.957,144.935C142.346,149.061 152.161,147.843 157.403,148.134ZM160.605,144.781C156.289,139.831 157.374,130.046 150.287,120.221C148.348,117.534 144.598,116.927 141.91,118.866C139.223,120.804 138.616,124.554 140.555,127.242C147.642,137.066 156.438,141.588 160.605,144.781ZM185.48,126.932C179.734,135.013 172.12,138.136 169.782,143.485C170.888,138.352 171.216,128.468 177.069,117.861L177.245,117.606C180.269,120.463 183.029,123.579 185.48,126.932ZM164.724,141.624C163.884,135.11 170.222,127.576 169.787,115.47C169.667,112.159 166.886,109.571 163.575,109.69C160.263,109.809 157.675,112.59 157.794,115.902C158.23,128.008 163.032,136.654 164.724,141.624Z" fill="#F6EBEF"/>
	</g>
</svg>